{
    "asset" : {
        "generator" : "Khronos glTF Blender I/O v1.7.33",
        "version" : "2.0"
    },
    "scene" : 0,
    "scenes" : [
        {
            "name" : "Scene",
            "nodes" : [
                0,
                30
            ]
        }
    ],
    "nodes" : [
        {
            "mesh" : 0,
            "name" : "Astronauta",
            "rotation" : [
                0.41743478178977966,
                0.5707435607910156,
                -0.5707435607910156,
                0.4174347519874573
            ],
            "translation" : [
                0.058612674474716187,
                0.9930969476699829,
                -0.16738185286521912
            ]
        },
        {
            "name" : "spine.006",
            "rotation" : [
                -0.09371194988489151,
                0,
                0,
                0.9955993890762329
            ],
            "scale" : [
                1,
                0.9999999403953552,
                1
            ],
            "translation" : [
                0,
                0.06270123273134232,
                2.0521811805451762e-08
            ]
        },
        {
            "children" : [
                1
            ],
            "name" : "spine.005",
            "rotation" : [
                -0.09485751390457153,
                0,
                0,
                0.9954909682273865
            ],
            "translation" : [
                0,
                0.06616349518299103,
                -3.872054321618634e-08
            ]
        },
        {
            "children" : [
                2
            ],
            "name" : "spine.004",
            "rotation" : [
                0.20173782110214233,
                0,
                0,
                0.9794396758079529
            ],
            "scale" : [
                1,
                1,
                1.0000001192092896
            ],
            "translation" : [
                0,
                0.19257846474647522,
                -9.313225746154785e-10
            ]
        },
        {
            "name" : "hand.L",
            "rotation" : [
                -0.07423374056816101,
                0.016711628064513206,
                0.03810366615653038,
                0.9963725805282593
            ],
            "scale" : [
                0.9999999403953552,
                1,
                1.0000001192092896
            ],
            "translation" : [
                4.72007428697907e-08,
                0.2769903838634491,
                2.470054383252318e-08
            ]
        },
        {
            "children" : [
                4
            ],
            "name" : "forearm.L",
            "rotation" : [
                0.14855700731277466,
                0.03980441391468048,
                -0.1739528328180313,
                0.9726699590682983
            ],
            "scale" : [
                1.0000001192092896,
                1,
                0.9999999403953552
            ],
            "translation" : [
                7.442918104061391e-08,
                0.36473026871681213,
                4.0033988568666246e-08
            ]
        },
        {
            "children" : [
                5
            ],
            "name" : "upper_arm.L",
            "rotation" : [
                -0.20431473851203918,
                0.6354725956916809,
                -0.5408704876899719,
                0.511751115322113
            ],
            "scale" : [
                1.0000001192092896,
                1.0000001192092896,
                1
            ],
            "translation" : [
                0.031355418264865875,
                0.2408415973186493,
                -0.020360436290502548
            ]
        },
        {
            "children" : [
                6
            ],
            "name" : "shoulder.L",
            "rotation" : [
                -0.6051545739173889,
                -0.34586241841316223,
                -0.35613444447517395,
                0.6223627328872681
            ],
            "scale" : [
                1.0000001192092896,
                1.000000238418579,
                0.9999999403953552
            ],
            "translation" : [
                0.018300000578165054,
                0.1372210830450058,
                0.0782509446144104
            ]
        },
        {
            "name" : "hand.R",
            "rotation" : [
                -0.08735908567905426,
                -0.049479540437459946,
                -0.07221765071153641,
                0.9923229813575745
            ],
            "scale" : [
                0.9999999403953552,
                0.9999998211860657,
                1
            ],
            "translation" : [
                -6.291482179676677e-08,
                0.2712056040763855,
                -3.5470279158289486e-08
            ]
        },
        {
            "children" : [
                8
            ],
            "name" : "forearm.R",
            "rotation" : [
                0.08802548795938492,
                -0.006380665581673384,
                0.18307669460773468,
                0.9791290760040283
            ],
            "scale" : [
                0.9999999403953552,
                1,
                1
            ],
            "translation" : [
                -2.2912677977160456e-08,
                0.3595098555088043,
                -2.880694971452158e-08
            ]
        },
        {
            "children" : [
                9
            ],
            "name" : "upper_arm.R",
            "rotation" : [
                -0.2186690717935562,
                -0.5745289325714111,
                0.619487464427948,
                0.48819640278816223
            ],
            "scale" : [
                1.0000001192092896,
                1.0000003576278687,
                1.0000001192092896
            ],
            "translation" : [
                -0.03327907621860504,
                0.24411123991012573,
                -0.020358409732580185
            ]
        },
        {
            "children" : [
                10
            ],
            "name" : "shoulder.R",
            "rotation" : [
                -0.6051545739173889,
                0.34586241841316223,
                0.35613444447517395,
                0.6223627328872681
            ],
            "scale" : [
                1.0000001192092896,
                1.000000238418579,
                0.9999999403953552
            ],
            "translation" : [
                -0.018300000578165054,
                0.1372210830450058,
                0.0782509446144104
            ]
        },
        {
            "name" : "breast.L",
            "rotation" : [
                3.1346875317694867e-08,
                0.6969360709190369,
                0.7171332240104675,
                3.046403662665398e-08
            ],
            "scale" : [
                1,
                0.9999995827674866,
                0.9999998807907104
            ],
            "translation" : [
                0.11840000748634338,
                -0.004881198517978191,
                -0.04275684803724289
            ]
        },
        {
            "name" : "breast.R",
            "rotation" : [
                3.1346875317694867e-08,
                0.6969360709190369,
                0.7171332240104675,
                3.046403662665398e-08
            ],
            "scale" : [
                1,
                0.9999995827674866,
                0.9999998807907104
            ],
            "translation" : [
                -0.11840000748634338,
                -0.004881198517978191,
                -0.04275684803724289
            ]
        },
        {
            "children" : [
                3,
                7,
                11,
                12,
                13
            ],
            "name" : "spine.003",
            "rotation" : [
                0.0016271488275378942,
                0,
                0,
                0.9999986886978149
            ],
            "translation" : [
                0,
                0.17288750410079956,
                0
            ]
        },
        {
            "children" : [
                14
            ],
            "name" : "spine.002",
            "rotation" : [
                -0.07746415585279465,
                0,
                0,
                0.9969951510429382
            ],
            "scale" : [
                1,
                0.9999999403953552,
                0.9999999403953552
            ],
            "translation" : [
                0,
                0.13663654029369354,
                2.1032741770454777e-08
            ]
        },
        {
            "children" : [
                15
            ],
            "name" : "spine.001",
            "rotation" : [
                -0.0644763931632042,
                0,
                0,
                0.9979192614555359
            ],
            "scale" : [
                1,
                1.0000001192092896,
                1
            ],
            "translation" : [
                0,
                0.15221953392028809,
                -1.4901161193847656e-08
            ]
        },
        {
            "name" : "pelvis.L",
            "rotation" : [
                -0.1524551510810852,
                -0.7933306694030762,
                -0.28550392389297485,
                0.5156272053718567
            ],
            "scale" : [
                1.0000001192092896,
                1.0000001192092896,
                1
            ],
            "translation" : [
                -1.2569787877225735e-08,
                1.9854830668464274e-08,
                3.442701412836868e-08
            ]
        },
        {
            "name" : "pelvis.R",
            "rotation" : [
                -0.1524551510810852,
                0.7933306694030762,
                0.28550392389297485,
                0.5156272053718567
            ],
            "scale" : [
                1.0000001192092896,
                1.0000001192092896,
                1
            ],
            "translation" : [
                1.2569787877225735e-08,
                1.9854830668464274e-08,
                3.442701412836868e-08
            ]
        },
        {
            "name" : "toe.L",
            "rotation" : [
                7.569866511403234e-08,
                0.9612487554550171,
                -0.2756825387477875,
                1.8716204408519843e-07
            ],
            "scale" : [
                1,
                0.9999998807907104,
                1
            ],
            "translation" : [
                -1.2685348771412919e-08,
                0.1292455792427063,
                -1.6540795400032948e-08
            ]
        },
        {
            "name" : "heel.02.L",
            "rotation" : [
                0.6797055006027222,
                0.6797055006027222,
                -0.19493691623210907,
                0.19493718445301056
            ],
            "translation" : [
                -0.03800005838274956,
                0.019970381632447243,
                0.087990403175354
            ]
        },
        {
            "children" : [
                19,
                20
            ],
            "name" : "foot.L",
            "rotation" : [
                -0.624180018901825,
                -0.009159398265182972,
                0.028929216787219048,
                0.7806910276412964
            ],
            "scale" : [
                0.9999998211860657,
                1,
                1
            ],
            "translation" : [
                -7.184729611253715e-08,
                0.4797631502151489,
                3.057524011751411e-08
            ]
        },
        {
            "children" : [
                21
            ],
            "name" : "shin.L",
            "rotation" : [
                0.47631821036338806,
                0.00827854871749878,
                0.11012105643749237,
                0.8723106384277344
            ],
            "scale" : [
                1,
                1.0000001192092896,
                1.0000001192092896
            ],
            "translation" : [
                -4.567080580386573e-08,
                0.5614871382713318,
                -2.269647758623705e-08
            ]
        },
        {
            "children" : [
                22
            ],
            "name" : "thigh.L",
            "rotation" : [
                0.8879705667495728,
                0.14002427458763123,
                0.0016025153454393148,
                0.43806272745132446
            ],
            "translation" : [
                0.09799996763467789,
                -0.037611156702041626,
                0.05389563366770744
            ]
        },
        {
            "name" : "toe.R",
            "rotation" : [
                9.951531154683835e-08,
                0.9612487554550171,
                -0.2756824493408203,
                3.0175181109370897e-07
            ],
            "scale" : [
                1,
                1.0000003576278687,
                0.9999998807907104
            ],
            "translation" : [
                -1.956597905916624e-08,
                0.1292455792427063,
                -9.404232059750939e-09
            ]
        },
        {
            "name" : "heel.02.R",
            "rotation" : [
                0.6797054409980774,
                -0.6797056198120117,
                0.19493716955184937,
                0.19493666291236877
            ],
            "scale" : [
                0.9999998211860657,
                0.9999999403953552,
                0.9999999403953552
            ],
            "translation" : [
                0.0379999540746212,
                0.019970353692770004,
                0.0879904180765152
            ]
        },
        {
            "children" : [
                24,
                25
            ],
            "name" : "foot.R",
            "rotation" : [
                -0.7114291191101074,
                0.015580406412482262,
                -0.0492095872759819,
                0.7008597254753113
            ],
            "scale" : [
                1,
                0.9999998807907104,
                0.9999998807907104
            ],
            "translation" : [
                -9.859101979259322e-09,
                0.5411372184753418,
                2.9123872202774237e-09
            ]
        },
        {
            "children" : [
                26
            ],
            "name" : "shin.R",
            "rotation" : [
                0.5716884136199951,
                -0.016103213652968407,
                -0.029887840151786804,
                0.8197681903839111
            ],
            "scale" : [
                1.0000001192092896,
                1.000000238418579,
                1
            ],
            "translation" : [
                1.4381829060994278e-08,
                0.5375053882598877,
                9.33953074877536e-08
            ]
        },
        {
            "children" : [
                27
            ],
            "name" : "thigh.R",
            "rotation" : [
                0.8977225422859192,
                -0.08156610280275345,
                -0.00332088815048337,
                0.4329321086406708
            ],
            "scale" : [
                0.9999998211860657,
                0.9999998211860657,
                0.9999998211860657
            ],
            "translation" : [
                -0.09800001978874207,
                -0.037611108273267746,
                0.053895581513643265
            ]
        },
        {
            "children" : [
                16,
                17,
                18,
                23,
                28
            ],
            "name" : "spine",
            "rotation" : [
                0.1258196234703064,
                0,
                0,
                0.9920531511306763
            ],
            "scale" : [
                1,
                0.9999999403953552,
                0.9999998807907104
            ],
            "translation" : [
                0,
                1.0098999738693237,
                -0.0551999993622303
            ]
        },
        {
            "children" : [
                29
            ],
            "name" : "metarig",
            "translation" : [
                -1.9777121543884277,
                0,
                0
            ]
        }
    ],
    "materials" : [
        {
            "doubleSided" : true,
            "name" : "TexMap",
            "pbrMetallicRoughness" : {
                "baseColorTexture" : {
                    "index" : 0
                },
                "metallicFactor" : 0,
                "roughnessFactor" : 0.8953887820243835
            }
        }
    ],
    "meshes" : [
        {
            "name" : "Astronauta",
            "primitives" : [
                {
                    "attributes" : {
                        "POSITION" : 0,
                        "NORMAL" : 1,
                        "TEXCOORD_0" : 2
                    },
                    "indices" : 3,
                    "material" : 0
                }
            ]
        }
    ],
    "textures" : [
        {
            "sampler" : 0,
            "source" : 0
        }
    ],
    "images" : [
        {
            "bufferView" : 4,
            "mimeType" : "image/jpeg",
            "name" : "texture"
        }
    ],
    "accessors" : [
        {
            "bufferView" : 0,
            "componentType" : 5126,
            "count" : 15287,
            "max" : [
                0.41147464513778687,
                0.35441336035728455,
                1.0271861553192139
            ],
            "min" : [
                -0.6680935621261597,
                -0.5656362175941467,
                -1.0694186687469482
            ],
            "type" : "VEC3"
        },
        {
            "bufferView" : 1,
            "componentType" : 5126,
            "count" : 15287,
            "type" : "VEC3"
        },
        {
            "bufferView" : 2,
            "componentType" : 5126,
            "count" : 15287,
            "type" : "VEC2"
        },
        {
            "bufferView" : 3,
            "componentType" : 5123,
            "count" : 49065,
            "type" : "SCALAR"
        }
    ],
    "bufferViews" : [
        {
            "buffer" : 0,
            "byteLength" : 183444,
            "byteOffset" : 0
        },
        {
            "buffer" : 0,
            "byteLength" : 183444,
            "byteOffset" : 183444
        },
        {
            "buffer" : 0,
            "byteLength" : 122296,
            "byteOffset" : 366888
        },
        {
            "buffer" : 0,
            "byteLength" : 98130,
            "byteOffset" : 489184
        },
        {
            "buffer" : 0,
            "byteLength" : 1713243,
            "byteOffset" : 587316
        }
    ],
    "samplers" : [
        {
            "magFilter" : 9729,
            "minFilter" : 9987
        }
    ],
    "buffers" : [
        {
            "byteLength" : 2300560,
            "uri" : "data:application/octet-stream;base64,"
        }
    ]
}
